<svg width="116" height="66" viewBox="0 0 116 66" fill="none" xmlns="http://www.w3.org/2000/svg">
<path fill-rule="evenodd" clip-rule="evenodd" d="M0.0254807 2.40567C0.0254807 0.765441 0.91546 0 1.77996 0H8.85313C10.0065 0 10.5821 1.31218 10.5821 2.18697C10.5821 2.58962 10.5713 15.0155 10.5597 28.4285C10.546 44.1565 10.5312 61.2423 10.5312 61.8914C10.5312 63.0942 9.98237 64.2971 8.59187 64.2971H1.75448C0.811388 64.2971 0 63.5316 0 61.8914L0.0254807 2.40567ZM81.7134 3.93655C81.7134 2.18697 82.8347 1.53088 83.4634 1.53088C83.515 1.53088 83.6743 1.53108 83.9147 1.53137C85.1408 1.53286 88.4747 1.53692 90.3539 1.53088C91.8472 1.53088 92.3187 2.84307 92.3187 4.37395V9.51334C92.3187 11.1536 92.3187 10.9349 92.3187 11.919H81.7134C81.7134 11.591 81.7134 11.4816 81.7134 9.51334V3.93655ZM22.6341 52.4874V15.9649C22.6341 14.6064 23.4201 13.6686 24.5989 13.6686C25.2212 13.6686 26.8288 13.6715 28.3471 13.6742C29.705 13.6766 30.991 13.6789 31.4363 13.6789C32.3794 13.6789 33.2439 14.434 33.2439 16.1836V61.8914C33.2439 63.8597 32.065 64.2971 31.4363 64.2971H30.9648C24.9087 64.2971 22.9485 57.5174 22.6341 52.4874ZM34.4228 16.1836C34.4228 14.9808 35.1301 13.6686 36.0732 13.6686H43.3035C44.7967 13.6686 45.0325 15.0901 45.0325 16.1836V61.8914C45.0325 63.641 44.2076 64.2971 43.2249 64.2971H36.3089C35.6016 64.2971 34.4228 63.8597 34.4228 61.8914V16.1836ZM46.29 26.025C46.29 20.1202 48.9621 14.434 53.9133 13.6686H55.0135C56.4282 13.6789 56.8997 14.7621 56.8997 16.1836V61.8914C56.8997 63.141 56.271 64.2971 55.1707 64.2971H48.0976C47.2331 64.2971 46.29 63.8597 46.29 61.8914V26.025ZM58.0786 16.1836C58.0786 14.7621 58.7859 13.6686 59.8862 13.6686H66.8022C67.7453 13.6686 68.6883 14.3247 68.6883 16.1836V61.8739C68.6883 63.5316 67.8238 64.2971 66.9593 64.2971H59.8862C58.6287 64.2971 58.0786 63.2036 58.0786 61.8914V16.1836ZM69.9458 16.1836C69.9458 15.4182 70.1816 13.6686 71.6748 13.6686H72.4607C75.6829 13.6686 80.3984 17.2771 80.477 26.025C80.5431 33.382 80.498 52.6494 80.482 59.4905C80.479 60.7841 80.477 61.6333 80.477 61.8739C80.477 63.3873 79.7696 64.2971 78.748 64.2971H71.832C70.2602 64.2971 69.9458 62.9849 69.9244 61.8739C69.7305 51.7725 69.8975 24.2286 69.9376 17.613C69.9428 16.7726 69.9458 16.2699 69.9458 16.1836ZM81.7134 16.1836C81.7134 14.6527 81.7134 14.3247 81.7134 13.6686H92.3187C92.3187 15.1995 92.3187 14.5434 92.3187 16.1836C92.3187 16.5882 92.3154 18.6417 92.3105 21.7357C92.2958 31.1865 92.2656 50.3453 92.2656 61.8739C92.2656 63.3129 91.5583 64.2971 90.6152 64.2971H83.4634C82.5203 64.2971 81.7344 63.4223 81.7134 61.8739C81.5755 51.722 81.6216 41.567 81.6674 31.4126C81.6904 26.336 81.7134 21.2594 81.7134 16.1836ZM93.574 24.7128C93.7588 18.1519 97.1382 13.6686 102.325 13.6686C103.583 13.6686 104.133 14.8714 104.133 15.9649V28.4307C104.133 30.5083 102.875 30.8363 102.325 30.8363H95.4092C94.7805 30.8363 93.574 30.3989 93.574 28.4307V24.7128ZM105.365 15.9649C105.365 14.8714 105.836 13.7779 107.094 13.6686C111.416 13.6686 115.817 16.7304 115.975 24.7128V61.8739C115.975 62.3288 115.796 64.2971 114.088 64.2971H107.251C105.836 64.2971 105.365 63.3129 105.365 61.8739C105.366 44.6878 105.365 22.6512 105.365 17.202V15.9649ZM93.523 44.7236C93.523 38.0534 96.1951 32.6953 102.168 32.4766C103.976 32.4766 104.133 33.8981 104.133 34.7729V61.8739C104.133 63.641 103.19 64.2756 102.404 64.2971C98.3957 64.4064 94.8591 61.6727 93.8849 56.0773C93.5039 54.6744 93.5112 51.0982 93.5202 46.7881C93.5216 46.1161 93.523 45.4261 93.523 44.7236Z" fill="#402718"/>
<path fill-rule="evenodd" clip-rule="evenodd" d="M10.5503 60.4964C10.4628 61.3627 10.621 62.9397 12.1775 63.2439L18.0922 64.4006C19.0261 64.5832 19.8919 63.8692 20.045 62.3532C20.1982 60.8372 21.7875 45.3573 21.7875 45.3573C22.0063 43.1918 21.2793 42.2765 20.3454 42.0939L14.3528 40.9221C13.4189 40.7395 12.4951 41.5526 12.3748 42.7439C11.7769 48.6629 11.1481 54.5778 10.5503 60.4964Z" fill="#402718"/>
<path d="M10.6304 47.7549C10.6304 47.7549 10.9501 52.3111 12.8274 54.1884C14.7047 56.0656 19.2609 56.3854 19.2609 56.3854C19.2609 56.3854 14.7047 56.705 12.8274 58.5824C10.9501 60.4596 10.6304 65.0159 10.6304 65.0159C10.6304 65.0159 10.3108 60.4596 8.43349 58.5824C6.55614 56.705 2 56.3854 2 56.3854C2 56.3854 6.55614 56.0656 8.43349 54.1884C10.3108 52.3111 10.6304 47.7549 10.6304 47.7549Z" fill="#D9CCC5"/>
</svg>
